<?xml version="1.0" encoding="UTF-8" standalone="no"?>
<!-- Created with Inkscape (http://www.inkscape.org/) -->

<svg
   xmlns:dc="http://purl.org/dc/elements/1.1/"
   xmlns:cc="http://creativecommons.org/ns#"
   xmlns:rdf="http://www.w3.org/1999/02/22-rdf-syntax-ns#"
   xmlns:svg="http://www.w3.org/2000/svg"
   xmlns="http://www.w3.org/2000/svg"
   xmlns:sodipodi="http://sodipodi.sourceforge.net/DTD/sodipodi-0.dtd"
   xmlns:inkscape="http://www.inkscape.org/namespaces/inkscape"
   width="154mm"
   height="94mm"
   viewBox="0 0 154 94"
   version="1.1"
   id="svg8"
   inkscape:version="0.92.3 (2405546, 2018-03-11)"
   sodipodi:docname="CodeRumorShort.svg">
  <defs
     id="defs2" />
  <sodipodi:namedview
     id="base"
     pagecolor="#ffffff"
     bordercolor="#666666"
     borderopacity="1.0"
     inkscape:pageopacity="0.0"
     inkscape:pageshadow="2"
     inkscape:zoom="0.7"
     inkscape:cx="585.70386"
     inkscape:cy="154.00343"
     inkscape:document-units="mm"
     inkscape:current-layer="layer1"
     showgrid="false"
     inkscape:window-width="1366"
     inkscape:window-height="705"
     inkscape:window-x="-8"
     inkscape:window-y="-8"
     inkscape:window-maximized="1" />
  <metadata
     id="metadata5">
    <rdf:RDF>
      <cc:Work
         rdf:about="">
        <dc:format>image/svg+xml</dc:format>
        <dc:type
           rdf:resource="http://purl.org/dc/dcmitype/StillImage" />
        <dc:title></dc:title>
      </cc:Work>
    </rdf:RDF>
  </metadata>
  <g
     inkscape:label="Layer 1"
     inkscape:groupmode="layer"
     id="layer1"
     transform="translate(0,-203)">
    <path
       style="fill:#000000;stroke-width:0.35277778"
       d="m 6.4385374,295.88863 c -2.251195,-1.04831 -3.933403,-2.73052 -4.981717,-4.98171 l -0.82483198,-1.77128 v -38.80556 -38.80555 l 0.82313998,-1.76389 c 0.858162,-1.83894 2.883808,-3.9167 4.881532,-5.00713 1.112931,-0.60748 4.3797746,-0.64161 69.7694326,-0.72904 77.800087,-0.10402 70.670467,-0.38199 73.935097,2.88264 3.20419,3.20419 2.9839,-0.002 2.9839,43.42297 0,42.70532 0.16363,39.96383 -2.57069,43.07018 -0.81635,0.92743 -2.24249,2.0226 -3.2367,2.48557 l -1.77733,0.82764 H 76.825093 8.2098174 Z M 144.23745,294.59766 c 2.36145,-0.44784 4.26023,-1.68142 5.52143,-3.5871 l 0.97315,-1.47044 0.0928,-38.73732 0.0928,-38.73732 -0.75002,-1.59559 c -0.41251,-0.87758 -1.22749,-1.99736 -1.81105,-2.4884 -2.45581,-2.06643 2.55904,-1.93839 -72.047577,-1.83947 l -68.5034826,0.0908 -1.470499,0.97315 c -0.808774,0.53523 -1.908416,1.63485 -2.443649,2.44359 l -0.973151,1.47043 -0.104697,38.47864 c -0.07362,27.05624 0.0096,38.87308 0.280497,39.8074 0.742091,2.55992 3.142294,4.59458 6.1129571,5.18197 2.2163675,0.43824 132.7214015,0.44754 135.0305415,0.01 z m -98.849784,-11.4805 c -2.284987,-0.7037 -4.33935,-2.9924 -4.858385,-5.41256 -0.222818,-1.03897 -0.393075,-5.26339 -0.393075,-9.75299 v -7.92014 h 1.565141 1.56514 l 0.110554,8.73125 c 0.101611,8.02502 0.168592,8.83112 0.82811,9.96597 0.91862,1.5807 2.690386,2.46835 4.926888,2.46835 2.236501,0 4.008268,-0.88765 4.926887,-2.46835 0.659518,-1.13485 0.7265,-1.94095 0.82811,-9.96597 l 0.110554,-8.73125 h 1.565141 1.565141 v 7.92014 c 0,4.35607 -0.169806,8.7119 -0.377346,9.67963 -0.537591,2.50671 -2.615896,4.79194 -5.002656,5.50073 -2.215092,0.65781 -5.195605,0.65181 -7.360204,-0.0148 z m 53.133267,0.24181 c -3.18255,-0.84561 -5.26668,-2.68451 -6.84708,-6.04139 -0.80159,-1.70262 -0.91347,-2.39398 -0.91347,-5.64444 0,-3.25047 0.11188,-3.94182 0.91347,-5.64445 1.2349,-2.62303 2.37862,-3.89445 4.61303,-5.12813 1.6959,-0.93635 2.19411,-1.03783 5.056267,-1.02991 2.74258,0.008 3.42098,0.13689 4.98113,0.94941 2.13862,1.11377 3.44216,2.56203 4.68817,5.20863 0.80158,1.70263 0.91347,2.39398 0.91347,5.64445 0,3.25046 -0.11189,3.94182 -0.91347,5.64444 -1.94006,4.12083 -4.59649,5.96349 -8.92487,6.19085 -1.37958,0.0725 -2.98457,0.005 -3.566647,-0.14946 z m 6.803287,-3.30347 c 0.96949,-0.64158 1.73508,-1.58483 2.42237,-2.98451 0.89054,-1.81359 1.00489,-2.42784 1.00489,-5.39785 0,-2.97001 -0.11435,-3.58427 -1.00489,-5.39785 -1.44629,-2.94539 -3.07622,-3.95076 -6.40506,-3.95076 -2.14663,0 -2.732627,0.14095 -3.958297,0.95215 -5.09271,3.37054 -4.67168,14.47345 0.65133,17.17594 2.153997,1.09358 5.295687,0.92243 7.289657,-0.39712 z m -87.060236,-8.41472 v -11.67402 l 5.203472,0.12055 c 4.339274,0.10053 5.437058,0.23773 6.609928,0.8261 2.485105,1.24667 3.674437,3.87909 3.19551,7.0728 -0.250656,1.67149 -1.935857,4.0397 -2.874622,4.0397 -0.685393,0 -0.643169,0.0945 0.659793,1.47601 0.633829,0.67205 2.151519,3.15488 3.372646,5.5174 l 2.22023,4.29548 h -1.709748 -1.70975 l -1.920513,-3.89237 c -1.056282,-2.14081 -2.37055,-4.32362 -2.920595,-4.8507 -0.897184,-0.85971 -1.306244,-0.97111 -3.975716,-1.08271 l -2.975635,-0.1244 v 4.97509 4.97509 h -1.5875 -1.5875 z m 10.469866,-1.58895 c 1.225559,-0.9103 1.774463,-2.82273 1.322213,-4.60669 -0.529728,-2.08959 -1.771958,-2.74648 -5.467352,-2.89113 l -3.149727,-0.1233 v 4.30354 4.30353 l 3.149727,-0.12329 c 2.518074,-0.0986 3.34935,-0.27157 4.145139,-0.86266 z m 35.391244,1.62131 v -11.64167 h 2.410685 2.410682 l 2.583642,6.96736 c 1.421,3.83205 2.77064,7.34187 2.9992,7.79961 0.37939,0.75979 0.60615,0.3298 2.60461,-4.93889 1.20396,-3.17412 2.53902,-6.68395 2.96678,-7.79961 l 0.77776,-2.02847 h 2.38304 2.38305 v 11.64167 11.64166 h -1.58209 -1.58209 l -0.0936,-10.06915 -0.0936,-10.06915 -2.8729,7.6879 -2.87289,7.6879 h -1.66254 -1.66255 l -2.8729,-7.6879 -2.872891,-7.6879 -0.09361,10.06915 -0.0936,10.06915 H 65.70719 64.125102 Z m 53.269446,-0.0324 v -11.67402 l 5.20347,0.12054 c 4.33927,0.10054 5.43705,0.23773 6.60992,0.82611 2.48511,1.24667 3.67444,3.87908 3.19551,7.0728 -0.25065,1.67148 -1.93585,4.03969 -2.87462,4.03969 -0.68539,0 -0.64317,0.0945 0.6598,1.47601 0.63383,0.67205 2.15151,3.15488 3.37264,5.5174 l 2.22023,4.29548 h -1.70975 -1.70975 l -1.92051,-3.89237 c -1.05628,-2.14081 -2.37055,-4.32362 -2.92059,-4.8507 -0.89719,-0.85971 -1.30625,-0.97111 -3.97572,-1.08271 l -2.97563,-0.1244 v 4.97509 4.97509 h -1.5875 -1.5875 v -11.67402 z m 10.46986,-1.58895 c 1.22556,-0.91031 1.77446,-2.82273 1.32222,-4.6067 -0.52974,-2.08958 -1.77196,-2.74647 -5.46736,-2.89113 l -3.14972,-0.1233 v 4.30354 4.30353 l 3.14972,-0.12329 c 2.51808,-0.0986 3.34935,-0.27157 4.14514,-0.86266 z M 17.089061,252.38895 c -0.129903,-0.1299 -0.236188,-0.36847 -0.236188,-0.53017 0,-0.16169 27.397603,-0.29398 60.88356,-0.29398 48.550057,0 60.853787,0.0893 60.736577,0.44098 -0.11667,0.35003 -12.62425,0.45936 -60.647367,0.53016 -33.275221,0.0491 -60.606679,-0.0171 -60.736582,-0.14699 z M 38.195928,242.179 c -3.102116,-0.99024 -5.17657,-2.87978 -6.621733,-6.03147 -0.642817,-1.40189 -0.776049,-2.32838 -0.776049,-5.39662 0,-3.90152 0.540418,-5.80292 2.276674,-8.01021 3.009186,-3.82556 9.632014,-5.09041 14.642594,-2.79649 l 1.943791,0.88989 v 1.6617 c 0,1.55413 -0.03996,1.62656 -0.617361,1.11895 -2.173449,-1.91074 -6.570091,-2.86141 -9.529631,-2.06056 -1.837701,0.49729 -3.74747,2.11714 -4.772546,4.04805 -0.64689,1.21852 -0.76686,2.024 -0.76686,5.14867 0,4.21341 0.547357,5.72716 2.779583,7.68708 2.843092,2.49626 8.335539,2.42314 11.760288,-0.15658 l 1.146527,-0.86362 v 1.62497 1.62497 l -1.973601,0.90354 c -2.544057,1.16471 -6.877621,1.44218 -9.491676,0.60773 z m 22.930555,0.25775 c -3.182546,-0.84561 -5.26668,-2.68451 -6.847078,-6.04139 -0.801585,-1.70263 -0.913472,-2.39398 -0.913472,-5.64445 0,-3.25046 0.111887,-3.94181 0.913472,-5.64444 1.234905,-2.62303 2.378618,-3.89445 4.613035,-5.12813 1.695898,-0.93636 2.194105,-1.03784 5.056265,-1.02991 2.742579,0.008 3.420984,0.13689 4.98113,0.9494 2.138628,1.11378 3.442168,2.56204 4.688168,5.20864 0.80159,1.70263 0.91348,2.39398 0.91348,5.64444 0,3.25047 -0.11189,3.94182 -0.91348,5.64445 -1.94005,4.12082 -4.596488,5.96349 -8.924867,6.19084 -1.379576,0.0725 -2.98457,0.005 -3.566653,-0.14945 z m 6.803294,-3.30348 c 0.969493,-0.64158 1.735076,-1.58482 2.422376,-2.9845 0.89053,-1.81359 1.00489,-2.42784 1.00489,-5.39786 0,-2.97001 -0.11436,-3.58426 -1.00489,-5.39785 -1.446296,-2.94539 -3.076225,-3.95076 -6.405068,-3.95076 -2.146624,0 -2.732627,0.14096 -3.958293,0.95215 -5.092717,3.37055 -4.671688,14.47346 0.651326,17.17595 2.153998,1.09358 5.295685,0.92243 7.289659,-0.39713 z m 12.070316,-8.38236 v -11.72596 l 5.55625,0.17075 c 6.94435,0.21341 8.67074,0.7139 11.22023,3.25281 2.22627,2.21704 2.809707,4.03074 2.784207,8.65518 -0.0227,4.11398 -0.886027,6.3944 -3.187967,8.42065 -2.34507,2.06421 -4.36423,2.5835 -10.81647,2.78179 l -5.55625,0.17075 z m 10.58334,8.7935 c 3.68221,-0.83846 5.60193,-3.35489 5.91682,-7.75598 0.32294,-4.5134 -1.09995,-7.75887 -4.02179,-9.17331 -1.33899,-0.64819 -2.45181,-0.84476 -5.49134,-0.97 l -3.81203,-0.15706 v 9.21754 9.21754 l 2.91042,-0.009 c 1.60073,-0.005 3.62479,-0.17128 4.49792,-0.3701 z m 14.111107,-8.7935 v -11.64166 h 7.40833 7.40833 v 1.23472 1.23472 h -5.82083 -5.82083 v 3.52778 3.52778 h 5.64444 5.64444 v 1.23472 1.23472 h -5.64444 -5.64444 v 4.40972 4.40973 h 5.99722 5.99722 v 1.23472 1.23472 h -7.58472 -7.58472 z"
       id="path21"
       inkscape:connector-curvature="0" />
  </g>
</svg>
