<?xml version="1.0" encoding="UTF-8" standalone="no"?>
<!-- Created with Inkscape (http://www.inkscape.org/) -->

<svg
   xmlns:dc="http://purl.org/dc/elements/1.1/"
   xmlns:cc="http://creativecommons.org/ns#"
   xmlns:rdf="http://www.w3.org/1999/02/22-rdf-syntax-ns#"
   xmlns:svg="http://www.w3.org/2000/svg"
   xmlns="http://www.w3.org/2000/svg"
   xmlns:sodipodi="http://sodipodi.sourceforge.net/DTD/sodipodi-0.dtd"
   xmlns:inkscape="http://www.inkscape.org/namespaces/inkscape"
   width="286mm"
   height="107mm"
   viewBox="0 0 286 107"
   version="1.1"
   id="svg8"
   sodipodi:docname="CodeRumor_space.svg"
   inkscape:version="0.92.3 (2405546, 2018-03-11)">
  <defs
     id="defs2" />
  <sodipodi:namedview
     id="base"
     pagecolor="#ffffff"
     bordercolor="#666666"
     borderopacity="1.0"
     inkscape:pageopacity="0.0"
     inkscape:pageshadow="2"
     inkscape:zoom="0.7"
     inkscape:cx="467.50254"
     inkscape:cy="267.91063"
     inkscape:document-units="mm"
     inkscape:current-layer="layer1"
     showgrid="false"
     inkscape:window-width="1366"
     inkscape:window-height="705"
     inkscape:window-x="-8"
     inkscape:window-y="-8"
     inkscape:window-maximized="1" />
  <metadata
     id="metadata5">
    <rdf:RDF>
      <cc:Work
         rdf:about="">
        <dc:format>image/svg+xml</dc:format>
        <dc:type
           rdf:resource="http://purl.org/dc/dcmitype/StillImage" />
        <dc:title></dc:title>
      </cc:Work>
    </rdf:RDF>
  </metadata>
  <g
     inkscape:label="Layer 1"
     inkscape:groupmode="layer"
     id="layer1"
     transform="translate(0,-190)">
    <path
       style="fill:#000000;stroke-width:0.35277775"
       d="m 47.527657,296.49203 c -17.34069,-2.17735 -32.55631,-12.75885 -40.5700094,-28.21384 -2.40695,-4.64197 -3.87742,-8.77992 -5.01161,-14.10282 -1.13732005,-5.3376 -1.13732005,-15.1235 0,-20.46111 3.44119,-16.14994 13.3000894,-29.26024 27.5663394,-36.65756 4.64198,-2.40694 8.77992,-3.87741 14.10283,-5.0116 5.33761,-1.13733 15.12351,-1.13733 20.46111,0 5.32292,1.13419 9.46086,2.60466 14.10284,5.0116 14.266247,7.39732 24.125153,20.50762 27.566343,36.65756 1.13732,5.33761 1.13732,15.12351 0,20.46111 -3.44119,16.14994 -13.300096,29.26024 -27.566343,36.65756 -7.45845,3.86734 -14.41463,5.64532 -22.92228,5.8589 -2.8134,0.0706 -6.29155,-0.0193 -7.72922,-0.1998 z m 4.55422,-7.03889 v -3.52778 h -3.92113 -3.92113 l 0.619,0.97014 c 1.33941,2.09923 3.04939,3.94164 4.62998,4.98859 2.53229,1.67731 2.59328,1.62014 2.59328,-2.43095 z m 6.12105,2.43095 c 1.5806,-1.04695 3.29057,-2.88936 4.62999,-4.98859 l 0.619,-0.97014 h -3.92113 -3.92113 v 3.52778 c 0,4.05109 0.061,4.10826 2.59327,2.43095 z m -16.10479,-3.12011 -1.83431,-2.80583 -2.96007,-0.0164 -2.96006,-0.0164 1.54895,1.23565 c 1.38463,1.10457 7.16772,4.36764 7.79299,4.39714 0.13575,0.006 -0.57862,-1.25097 -1.5875,-2.79418 z m 25.09715,1.21992 c 1.68005,-0.87225 3.75167,-2.14225 4.6036,-2.82223 l 1.54895,-1.23631 -2.96006,0.0164 -2.96007,0.0164 -1.83431,2.80583 c -1.00888,1.5432 -1.74847,2.80583 -1.64354,2.80583 0.10493,0 1.56537,-0.71366 3.24543,-1.58591 z m -36.80924,-3.00021 c -0.61636,-0.64334 -1.36848,-1.05597 -1.91809,-1.05232 -0.78049,0.005 -0.66292,0.14911 0.85975,1.05232 2.20821,1.30987 2.31327,1.30987 1.05834,0 z m 48.81787,-1.00126 c -0.501,-0.0782 -1.14191,0.27143 -1.86052,1.015 l -1.09624,1.13433 1.86051,-1.01501 c 1.50245,-0.81966 1.71343,-1.03796 1.09625,-1.13432 z m -55.44766,-6.89425 c -1.2256,-1.82018 -3.09278,-5.15295 -4.14929,-7.40616 l -1.92092,-4.09675 -3.62314,-0.002 -3.62315,-0.002 0.68575,1.34418 c 1.27834,2.50574 5.05363,7.28571 8.20278,10.38568 3.09755,3.04918 3.15723,3.0868 4.89605,3.0868 h 1.76029 z m 14.45906,2.69204 c -0.10479,-0.33955 -0.73415,-2.20486 -1.39857,-4.14514 -0.66443,-1.94027 -1.56747,-4.99621 -2.00677,-6.79097 l -0.79872,-3.26319 h -6.29111 -6.29111 l 0.89236,2.02847 c 1.72288,3.91642 3.92657,7.44908 6.93201,11.1125 l 1.37473,1.67569 h 3.88885 c 3.54106,0 3.87181,-0.0552 3.69833,-0.61736 z m 13.86656,-6.79097 v -7.40833 h -7.24793 -7.24793 l 0.24039,1.32291 c 0.40857,2.24842 2.26336,8.24904 3.38035,10.93611 l 1.06319,2.55764 h 4.90596 4.90597 z m 14.4029,4.85069 c 1.11699,-2.68707 2.97178,-8.68769 3.38035,-10.93611 l 0.24039,-1.32291 h -7.24793 -7.24793 v 7.40833 7.40833 h 4.90597 4.90596 z m 11.95335,0.88195 c 3.005427,-3.66342 5.209117,-7.19608 6.932007,-11.1125 l 0.89236,-2.02847 h -6.291107 -6.29111 l -0.79872,3.26319 c -0.4393,1.79476 -1.34234,4.8507 -2.00677,6.79097 -0.66442,1.94028 -1.29378,3.80559 -1.39857,4.14514 -0.17348,0.56215 0.15727,0.61736 3.69833,0.61736 h 3.88885 z m 9.925117,-1.41111 c 3.14915,-3.09997 6.92444,-7.87994 8.20277,-10.38568 l 0.68576,-1.34418 -3.62315,0.002 -3.62314,0.002 -1.92092,4.09675 c -1.05651,2.25322 -2.92369,5.58599 -4.14929,7.40616 l -2.22837,3.30952 h 1.76029 c 1.73882,0 1.7985,-0.0376 4.89605,-3.0868 z M 16.451327,263.95686 c 0,-0.053 -0.38942,-1.63142 -0.86538,-3.50769 -0.97617,-3.84817 -1.95685,-10.35749 -1.95685,-12.9887 v -1.75176 h -4.5861094 -4.58611 v 1.28082 c 0,2.71334 1.17321,8.60271 2.53833,12.74208 l 1.42518,4.32153 h 4.0154694 c 2.20851,0 4.01547,-0.0433 4.01547,-0.0963 z m 16.92214,-0.1683 c -0.006,-0.14552 -0.24337,-1.85209 -0.52716,-3.79236 -0.28378,-1.94028 -0.6211,-5.94871 -0.7496,-8.90763 l -0.23362,-5.37986 h -7.45802 -7.45802 l 0.12561,2.38125 c 0.1745,3.30818 1.33371,10.17619 2.24964,13.32843 l 0.76555,2.63475 h 6.64841 c 3.65662,0 6.64336,-0.11906 6.63721,-0.26458 z m 18.70841,-8.90763 v -9.17222 h -8.46667 -8.46666 l 0.003,0.79375 c 0.007,1.86748 0.72826,10.8886 1.06433,13.31735 0.6623,4.78634 -0.42037,4.23333 8.2879,4.23333 h 7.57793 z m 18.85567,8.37846 c 0.55536,-2.56445 1.58915,-13.37562 1.60234,-16.75693 l 0.003,-0.79375 h -8.46666 -8.46667 v 9.17222 9.17221 h 7.578 c 7.57255,0 7.57813,-7.1e-4 7.74989,-0.79375 z m 17.431687,-1.841 c 0.91592,-3.15224 2.07514,-10.02025 2.24964,-13.32843 l 0.12561,-2.38125 h -7.45802 -7.458017 l -0.23362,5.37986 c -0.1285,2.95892 -0.46582,6.96735 -0.7496,8.90763 -0.28379,1.94027 -0.52101,3.64684 -0.52716,3.79236 -0.006,0.14552 2.98059,0.26458 6.63721,0.26458 h 6.648397 z m 12.327096,-1.68678 c 1.36512,-4.13937 2.53833,-10.02874 2.53833,-12.74208 v -1.28082 h -4.586116 -4.58611 v 1.75176 c 0,2.63121 -0.98068,9.14053 -1.95685,12.9887 -0.47596,1.87627 -0.86538,3.45473 -0.86538,3.50769 0,0.053 1.80696,0.0963 4.01547,0.0963 h 4.01547 z M 13.629097,240.42917 c 0,-2.63121 0.98068,-9.14055 1.95685,-12.98871 0.47596,-1.87627 0.86538,-3.45473 0.86538,-3.50769 0,-0.053 -1.80696,-0.0963 -4.01547,-0.0963 H 8.4203876 l -1.42518,4.32152 c -1.36512,4.13937 -2.53833,10.02876 -2.53833,12.7421 v 1.28082 h 4.58611 4.5861094 z m 18.46761,-3.6281 c 0.1285,-2.95893 0.46582,-6.96736 0.7496,-8.90764 0.28379,-1.94028 0.52101,-3.64684 0.52716,-3.79236 0.006,-0.14552 -2.98059,-0.26458 -6.63721,-0.26458 h -6.64841 l -0.76555,2.63474 c -0.91593,3.15225 -2.07514,10.02027 -2.24964,13.32845 l -0.12561,2.38125 h 7.45802 7.45802 z m 19.98517,-3.79236 v -9.17222 h -7.578 c -8.70827,0 -7.6256,-0.55301 -8.2879,4.23333 -0.33607,2.42875 -1.05705,11.44988 -1.06434,13.31736 l -0.003,0.79375 h 8.46667 8.46667 z m 20.45801,8.37847 c -0.007,-1.86748 -0.72826,-10.88861 -1.06433,-13.31736 -0.6623,-4.78634 0.42037,-4.23333 -8.2879,-4.23333 h -7.578 v 9.17222 9.17222 h 8.46666 8.46667 l -0.003,-0.79375 z m 18.078987,-1.5875 c -0.1745,-3.30818 -1.33372,-10.1762 -2.24964,-13.32845 l -0.76556,-2.63474 h -6.648397 c -3.65662,0 -6.64337,0.11906 -6.63721,0.26458 0.006,0.14552 0.24337,1.85208 0.52716,3.79236 0.28378,1.94028 0.6211,5.94871 0.7496,8.90764 l 0.23362,5.37986 h 7.458017 7.45802 z m 12.615786,1.10043 c 0,-2.71334 -1.17321,-8.60273 -2.53833,-12.7421 l -1.425186,-4.32152 h -4.01547 c -2.20851,0 -4.01547,0.0433 -4.01547,0.0963 0,0.053 0.38942,1.63142 0.86538,3.50769 0.97617,3.84816 1.95685,10.3575 1.95685,12.98871 v 1.75176 h 4.58611 4.586116 z m -83.627693,-24.6925 c 1.05651,-2.25322 2.92369,-5.58599 4.14929,-7.40616 l 2.22837,-3.3094 h -1.76029 c -1.73882,0 -1.7985,0.0376 -4.89605,3.0868 -3.14915,3.09997 -6.92444,7.87993 -8.20278,10.38568 l -0.68575,1.34418 3.62315,-0.002 3.62314,-0.002 z m 15.20301,0.8379 c 0.4393,-1.79475 1.34234,-4.85069 2.00677,-6.79097 0.66442,-1.94027 1.29378,-3.80559 1.39857,-4.14514 0.17348,-0.56214 -0.15727,-0.61735 -3.69833,-0.61735 h -3.88885 l -1.37473,1.67569 c -3.00544,3.66341 -5.20913,7.19607 -6.93201,11.1125 l -0.89236,2.02847 h 6.29111 6.29111 z m 17.2719,-4.14513 v -7.40833 h -4.90597 -4.90596 l -1.06319,2.55763 c -1.11699,2.68708 -2.97178,8.6877 -3.38035,10.93611 l -0.24039,1.32292 h 7.24793 7.24793 z m 17.78325,6.08541 c -0.40857,-2.24841 -2.26336,-8.24903 -3.38035,-10.93611 l -1.06319,-2.55763 h -4.90596 -4.90597 v 7.40833 7.40833 h 7.24793 7.24793 z m 15.505007,-0.70555 c -1.72289,-3.91643 -3.92658,-7.44909 -6.932007,-11.1125 l -1.37473,-1.67569 h -3.88885 c -3.54106,0 -3.87181,0.0552 -3.69833,0.61735 0.10479,0.33955 0.73415,2.20487 1.39857,4.14514 0.66443,1.94028 1.56747,4.99622 2.00677,6.79097 l 0.79872,3.2632 h 6.29111 6.291107 z m 11.19588,0.68429 c -1.27833,-2.50575 -5.05362,-7.28571 -8.20277,-10.38568 -3.09755,-3.04918 -3.15723,-3.0868 -4.89605,-3.0868 h -1.76029 l 2.22837,3.3094 c 1.2256,1.82017 3.09278,5.15294 4.14929,7.40616 l 1.92092,4.09675 3.62314,0.002 3.62315,0.002 -0.68576,-1.34418 z m -66.157777,-18.11952 1.03614,-1.11926 -1.76389,0.99449 c -2.23961,1.26272 -2.22183,1.24403 -1.18313,1.24403 0.52961,0 1.28355,-0.44161 1.91088,-1.11926 z m 11.6899,-1.71936 c 1.00888,-1.5432 1.74847,-2.80583 1.64354,-2.80583 -0.55959,0 -6.52044,3.3477 -7.84903,4.40813 l -1.54895,1.23632 2.96006,-0.0164 2.96007,-0.0164 1.83431,-2.80583 z m 9.98374,-0.68916 c 0,-4.0511 -0.061,-4.10827 -2.59328,-2.43095 -1.58059,1.04694 -3.29057,2.88936 -4.62998,4.98859 l -0.619,0.97014 h 3.92113 3.92113 z m 10.75104,2.55764 c -1.33942,-2.09923 -3.04939,-3.94165 -4.62999,-4.98859 -2.53228,-1.67732 -2.59327,-1.62015 -2.59327,2.43095 v 3.52778 h 3.92113 3.92113 z m 8.96597,-0.26618 c -1.3286,-1.06043 -7.28944,-4.40813 -7.84903,-4.40813 -0.10493,0 0.63466,1.26263 1.64354,2.80583 l 1.83431,2.80583 2.96007,0.0164 2.96006,0.0164 -1.54895,-1.23631 z m 8.12304,1.11155 c -0.0808,-0.0686 -0.94074,-0.57228 -1.91088,-1.11926 l -1.76389,-0.99449 1.03614,1.11926 c 0.62733,0.67765 1.38127,1.11926 1.91088,1.11926 0.4811,0 0.80859,-0.0561 0.72775,-0.12477 z m 59.112283,86.42913 c -2.2512,-1.04831 -3.93341,-2.73052 -4.98172,-4.98171 l -0.82483,-1.77128 V 242.7101 203.90455 l 0.82314,-1.76389 c 0.85816,-1.83894 2.88381,-3.9167 4.88153,-5.00713 1.11293,-0.60748 4.37978,-0.64161 69.76943,-0.72904 77.80009,-0.10402 70.67047,-0.38199 73.9351,2.88264 3.2042,3.20419 2.9839,-0.002 2.9839,43.42297 0,42.70531 0.16363,39.96381 -2.57069,43.07017 -0.81635,0.92742 -2.24249,2.02259 -3.2367,2.48556 l -1.77733,0.82764 h -68.61527 -68.61528 z m 137.79891,-1.29097 c 2.36146,-0.44784 4.26024,-1.68142 5.52144,-3.5871 l 0.97315,-1.47043 0.0928,-38.73731 0.0928,-38.73732 -0.75001,-1.59559 c -0.41251,-0.87758 -1.22749,-1.99736 -1.81106,-2.4884 -2.45581,-2.06643 2.55905,-1.93839 -72.04758,-1.83946 l -68.50348,0.0908 -1.4705,0.97315 c -0.80877,0.53523 -1.90841,1.63484 -2.44365,2.44358 l -0.97315,1.47044 -0.10469,38.47863 c -0.0736,27.05623 0.01,38.87307 0.28049,39.80739 0.7421,2.55992 3.1423,4.59458 6.11296,5.18197 2.21637,0.43824 132.7214,0.44754 135.03054,0.01 z m -98.84978,-11.4805 c -2.28499,-0.70369 -4.33935,-2.99239 -4.85839,-5.41256 -0.22282,-1.03897 -0.39307,-5.26339 -0.39307,-9.75299 v -7.92013 h 1.56514 1.56514 l 0.11055,8.73124 c 0.10161,8.02502 0.1686,8.83112 0.82811,9.96597 0.91862,1.58071 2.69039,2.46835 4.92689,2.46835 2.2365,0 4.00827,-0.88764 4.92689,-2.46835 0.65952,-1.13485 0.7265,-1.94095 0.82811,-9.96597 l 0.11055,-8.73124 h 1.56514 1.56514 v 7.92013 c 0,4.35607 -0.1698,8.71191 -0.37734,9.67963 -0.53759,2.50671 -2.6159,4.79194 -5.00266,5.50073 -2.21509,0.65781 -5.1956,0.65181 -7.3602,-0.0148 z m 53.13326,0.24182 c -3.18255,-0.84562 -5.26668,-2.68452 -6.84708,-6.0414 -0.80158,-1.70262 -0.91347,-2.39397 -0.91347,-5.64444 0,-3.25047 0.11189,-3.94182 0.91347,-5.64444 1.23491,-2.62303 2.37862,-3.89445 4.61304,-5.12813 1.69589,-0.93635 2.1941,-1.03783 5.05626,-1.02991 2.74258,0.008 3.42099,0.1369 4.98113,0.94941 2.13862,1.11377 3.44217,2.56202 4.68817,5.20863 0.80159,1.70262 0.91347,2.39397 0.91347,5.64444 0,3.25047 -0.11188,3.94182 -0.91347,5.64444 -1.94006,4.12083 -4.59649,5.96349 -8.92487,6.19085 -1.37957,0.0725 -2.98457,0.005 -3.56665,-0.14945 z m 6.80329,-3.30348 c 0.9695,-0.64158 1.73508,-1.58483 2.42238,-2.98451 0.89053,-1.81358 1.00488,-2.42784 1.00488,-5.39785 0,-2.97001 -0.11435,-3.58427 -1.00488,-5.39785 -1.4463,-2.94539 -3.07623,-3.95075 -6.40507,-3.95075 -2.14662,0 -2.73263,0.14096 -3.95829,0.95214 -5.09272,3.37054 -4.67169,14.47345 0.65132,17.17594 2.154,1.09358 5.29569,0.92243 7.28966,-0.39712 z m -87.06023,-8.41472 v -11.67401 l 5.20347,0.12055 c 4.33927,0.10053 5.43705,0.23773 6.60992,0.82611 2.48511,1.24667 3.67444,3.87907 3.19551,7.07278 -0.25065,1.6715 -1.93585,4.03971 -2.87462,4.03971 -0.68539,0 -0.64317,0.0945 0.6598,1.476 0.63383,0.67205 2.15152,3.15488 3.37264,5.5174 l 2.22023,4.29549 h -1.70975 -1.70975 l -1.92051,-3.89238 c -1.05628,-2.14081 -2.37055,-4.32362 -2.92059,-4.8507 -0.89719,-0.85971 -1.30625,-0.97111 -3.97572,-1.08271 l -2.97563,-0.12439 v 4.97508 4.9751 h -1.5875 -1.5875 z m 10.46986,-1.58895 c 1.22556,-0.9103 1.77446,-2.82273 1.32222,-4.60669 -0.52974,-2.08958 -1.77196,-2.74647 -5.46736,-2.89112 l -3.14972,-0.12329 v 4.30352 4.30354 l 3.14972,-0.1233 c 2.51808,-0.0986 3.34935,-0.27157 4.14514,-0.86266 z m 35.39125,1.62131 v -11.64166 h 2.41068 2.41068 l 2.58364,6.96735 c 1.421,3.83205 2.77064,7.34188 2.99921,7.79961 0.37939,0.75979 0.60615,0.3298 2.6046,-4.93889 1.20397,-3.17412 2.53902,-6.68394 2.96679,-7.79959 l 0.77775,-2.02848 h 2.38304 2.38305 v 11.64166 11.64167 h -1.58209 -1.58209 l -0.0936,-10.06916 -0.0936,-10.06915 -2.87289,7.6879 -2.8729,7.68791 h -1.66254 -1.66255 l -2.87289,-7.68791 -2.8729,-7.6879 -0.0936,10.06915 -0.0936,10.06916 h -1.5821 -1.58208 z m 53.26944,-0.0324 v -11.67401 l 5.20347,0.12055 c 4.33927,0.10053 5.43706,0.23773 6.60993,0.82611 2.48511,1.24666 3.67444,3.87907 3.19551,7.07278 -0.25066,1.67149 -1.93586,4.0397 -2.87462,4.0397 -0.6854,0 -0.64317,0.0945 0.65979,1.476 0.63383,0.67205 2.15152,3.15488 3.37264,5.5174 l 2.22024,4.29549 h -1.70975 -1.70975 l -1.92051,-3.89238 c -1.05629,-2.14081 -2.37056,-4.32362 -2.9206,-4.8507 -0.89718,-0.85971 -1.30624,-0.97111 -3.97572,-1.08271 l -2.97563,-0.12439 v 4.97508 4.9751 h -1.5875 -1.5875 v -11.67403 z m 10.46986,-1.58895 c 1.22557,-0.9103 1.77447,-2.82273 1.32222,-4.60669 -0.52973,-2.08959 -1.77196,-2.74648 -5.46735,-2.89112 l -3.14973,-0.1233 v 4.30352 4.30354 l 3.14973,-0.1233 c 2.51807,-0.0986 3.34935,-0.27157 4.14513,-0.86266 z M 149.68473,244.76897 c -0.1299,-0.12991 -0.23619,-0.36848 -0.23619,-0.53017 0,-0.16169 27.39761,-0.29398 60.88357,-0.29398 48.55006,0 60.85378,0.0893 60.73657,0.44097 -0.11667,0.35003 -12.62425,0.45937 -60.64737,0.53017 -33.27522,0.0491 -60.60667,-0.0171 -60.73658,-0.14699 z m 21.10687,-10.20996 c -3.10212,-0.99024 -5.17657,-2.87978 -6.62173,-6.03147 -0.64282,-1.40188 -0.77605,-2.32837 -0.77605,-5.39661 0,-3.90152 0.54041,-5.80292 2.27667,-8.01021 3.00919,-3.82556 9.63202,-5.09042 14.6426,-2.7965 l 1.94379,0.8899 v 1.66169 c 0,1.55414 -0.04,1.62657 -0.61736,1.11896 -2.17345,-1.91075 -6.57009,-2.86142 -9.52964,-2.06056 -1.8377,0.49728 -3.74747,2.11713 -4.77254,4.04804 -0.64689,1.21853 -0.76686,2.024 -0.76686,5.14868 0,4.21341 0.54736,5.72715 2.77958,7.68707 2.84309,2.49627 8.33554,2.42315 11.76029,-0.15657 l 1.14653,-0.86363 v 1.62497 1.62497 l -1.9736,0.90355 c -2.54406,1.1647 -6.87763,1.44217 -9.49168,0.60772 z m 22.93055,0.25776 c -3.18254,-0.84562 -5.26667,-2.68451 -6.84707,-6.0414 -0.80159,-1.70262 -0.91348,-2.39397 -0.91348,-5.64444 0,-3.25047 0.11189,-3.94182 0.91348,-5.64444 1.2349,-2.62303 2.37862,-3.89445 4.61303,-5.12814 1.6959,-0.93635 2.19411,-1.03783 5.05627,-1.02991 2.74258,0.008 3.42098,0.1369 4.98113,0.94941 2.13862,1.11378 3.44216,2.56203 4.68817,5.20864 0.80158,1.70262 0.91347,2.39397 0.91347,5.64444 0,3.25047 -0.11189,3.94182 -0.91347,5.64444 -1.94006,4.12083 -4.59649,5.96349 -8.92487,6.19085 -1.37958,0.0725 -2.98457,0.005 -3.56666,-0.14945 z m 6.8033,-3.30348 c 0.96949,-0.64158 1.73508,-1.58483 2.42237,-2.98451 0.89054,-1.81358 1.00489,-2.42784 1.00489,-5.39785 0,-2.97001 -0.11435,-3.58427 -1.00489,-5.39785 -1.44629,-2.94539 -3.07622,-3.95076 -6.40506,-3.95076 -2.14663,0 -2.73263,0.14096 -3.9583,0.95215 -5.09271,3.37055 -4.67168,14.47345 0.65133,17.17594 2.154,1.09358 5.29569,0.92243 7.28966,-0.39712 z m 12.07032,-8.38236 v -11.72596 l 5.55625,0.17075 c 6.94434,0.21341 8.67073,0.7139 11.22022,3.2528 2.22628,2.21704 2.80971,4.03074 2.78421,8.65519 -0.0227,4.11398 -0.88603,6.39439 -3.18796,8.42064 -2.34508,2.06422 -4.36424,2.58351 -10.81647,2.78179 l -5.55625,0.17075 z m 10.58333,8.79349 c 3.68221,-0.83845 5.60193,-3.35488 5.91683,-7.75597 0.32293,-4.5134 -1.09996,-7.75887 -4.0218,-9.17331 -1.33899,-0.6482 -2.45181,-0.84476 -5.49133,-0.97 l -3.81203,-0.15706 v 9.21754 9.21753 l 2.91041,-0.009 c 1.60073,-0.005 3.62479,-0.17129 4.49792,-0.3701 z m 14.11111,-8.79349 v -11.64167 h 7.40833 7.40834 v 1.23473 1.23472 h -5.82084 -5.82083 v 3.52778 3.52777 h 5.64444 5.64445 v 1.23473 1.23472 h -5.64445 -5.64444 v 4.40972 4.40972 h 5.99722 5.99722 v 1.23472 1.23473 h -7.58472 -7.58472 z"
       id="path63"
       inkscape:connector-curvature="0" />
  </g>
</svg>
