<?xml version="1.0" encoding="UTF-8" standalone="no"?>
<!-- Created with Inkscape (http://www.inkscape.org/) -->

<svg
   xmlns:dc="http://purl.org/dc/elements/1.1/"
   xmlns:cc="http://creativecommons.org/ns#"
   xmlns:rdf="http://www.w3.org/1999/02/22-rdf-syntax-ns#"
   xmlns:svg="http://www.w3.org/2000/svg"
   xmlns="http://www.w3.org/2000/svg"
   xmlns:sodipodi="http://sodipodi.sourceforge.net/DTD/sodipodi-0.dtd"
   xmlns:inkscape="http://www.inkscape.org/namespaces/inkscape"
   width="260mm"
   height="107mm"
   viewBox="0 0 260 107"
   version="1.1"
   id="svg8"
   sodipodi:docname="CodeRumor.svg"
   inkscape:version="0.92.3 (2405546, 2018-03-11)">
  <defs
     id="defs2" />
  <sodipodi:namedview
     id="base"
     pagecolor="#ffffff"
     bordercolor="#666666"
     borderopacity="1.0"
     inkscape:pageopacity="0.0"
     inkscape:pageshadow="2"
     inkscape:zoom="0.98994949"
     inkscape:cx="433.08248"
     inkscape:cy="154.84969"
     inkscape:document-units="mm"
     inkscape:current-layer="layer1"
     showgrid="false"
     inkscape:window-width="1366"
     inkscape:window-height="705"
     inkscape:window-x="-8"
     inkscape:window-y="-8"
     inkscape:window-maximized="1" />
  <metadata
     id="metadata5">
    <rdf:RDF>
      <cc:Work
         rdf:about="">
        <dc:format>image/svg+xml</dc:format>
        <dc:type
           rdf:resource="http://purl.org/dc/dcmitype/StillImage" />
        <dc:title></dc:title>
      </cc:Work>
    </rdf:RDF>
  </metadata>
  <g
     inkscape:label="Layer 1"
     inkscape:groupmode="layer"
     id="layer1"
     transform="translate(0,-190)">
    <path
       style="fill:#000000;stroke-width:0.35277781"
       d="M 47.055614,296.04711 C 29.714926,293.86976 14.499299,283.28827 6.4856013,267.83327 c -2.406949,-4.64197 -3.877416,-8.77992 -5.0116091,-14.10283 -1.13732293,-5.33761 -1.13732293,-15.12351 0,-20.46111 3.4087831,-15.99786 13.2816718,-29.2221 27.2487838,-36.49838 4.611737,-2.40252 7.501957,-3.50597 12.10225,-4.6205 3.290133,-0.79711 4.218093,-0.86077 12.548697,-0.86077 8.330605,0 9.258565,0.0637 12.548698,0.86077 14.729344,3.56853 27.316034,13.47092 34.339419,27.01605 2.40695,4.64197 3.87742,8.77992 5.01161,14.10283 1.13732,5.3376 1.13732,15.1235 0,20.46111 -3.44119,16.14995 -13.300085,29.26025 -27.566339,36.65757 -7.458445,3.86734 -14.414627,5.64533 -22.922276,5.8589 -2.813403,0.0706 -6.291552,-0.0193 -7.729221,-0.1998 z m 4.55422,-7.03889 v -3.52778 h -3.921128 -3.921129 l 0.618998,0.97014 c 1.339413,2.09923 3.049387,3.94165 4.629983,4.98859 2.532288,1.67732 2.593276,1.62015 2.593276,-2.43095 z m 6.121055,2.43095 c 1.580596,-1.04694 3.29057,-2.88936 4.629983,-4.98859 l 0.618998,-0.97014 h -3.921129 -3.921129 v 3.52778 c 0,4.0511 0.06099,4.10827 2.593277,2.43095 z m -16.104793,-3.12011 -1.834318,-2.80583 -2.960063,-0.0164 -2.960063,-0.0164 1.548952,1.23566 c 1.384632,1.10456 7.167715,4.36763 7.792992,4.39714 0.135749,0.006 -0.578626,-1.25098 -1.5875,-2.79418 z m 25.097145,1.21992 c 1.680058,-0.87225 3.751679,-2.14225 4.603602,-2.82222 l 1.548952,-1.23632 -2.960063,0.0164 -2.960064,0.0164 -1.834317,2.80583 c -1.008874,1.54321 -1.748466,2.80583 -1.643539,2.80583 0.10493,0 1.565374,-0.71366 3.245429,-1.58591 z M 29.914,286.53878 c -0.616359,-0.64334 -1.368477,-1.05598 -1.918085,-1.05232 -0.780493,0.005 -0.662919,0.1491 0.859752,1.05232 2.208211,1.30986 2.313263,1.30986 1.058333,0 z m 48.817871,-1.00127 c -0.500994,-0.0782 -1.141907,0.27144 -1.860515,1.01501 l -1.096243,1.13433 1.860515,-1.01501 c 1.502452,-0.81967 1.713428,-1.03797 1.096243,-1.13433 z m -55.447658,-6.89425 c -1.225601,-1.82018 -3.092781,-5.15294 -4.149289,-7.40616 l -1.920924,-4.09675 -3.623142,-0.002 -3.6231437,-0.002 0.6857507,1.34418 c 1.278336,2.50574 5.053632,7.28571 8.202776,10.38568 3.09755,3.04918 3.157232,3.0868 4.896056,3.0868 h 1.760281 z m 14.459055,2.69204 c -0.104789,-0.33955 -0.734144,-2.20486 -1.39857,-4.14514 -0.664424,-1.94027 -1.56747,-4.99621 -2.006767,-6.79097 L 33.539209,267.136 h -6.291108 -6.291108 l 0.892354,2.02847 c 1.722891,3.91642 3.92658,7.44909 6.932015,11.1125 l 1.374727,1.67569 h 3.888851 c 3.541064,0 3.87181,-0.0552 3.698328,-0.61736 z m 13.866566,-6.79097 V 267.136 h -7.247929 -7.247932 l 0.240393,1.32291 c 0.408566,2.24842 2.263355,8.24904 3.380345,10.93612 l 1.063188,2.55763 h 4.905968 4.905967 z m 14.402902,4.8507 c 1.116989,-2.68708 2.971779,-8.6877 3.380345,-10.93612 l 0.240393,-1.32291 h -7.247933 -7.247929 v 7.40833 7.40833 h 4.905968 4.905968 z m 11.95335,0.88194 c 3.005433,-3.66341 5.209123,-7.19608 6.932013,-11.1125 l 0.892355,-2.02847 h -6.291108 -6.291108 l -0.79872,3.26319 c -0.4393,1.79476 -1.342344,4.8507 -2.00677,6.79097 -0.664425,1.94028 -1.29378,3.80559 -1.39857,4.14514 -0.173482,0.56215 0.157265,0.61736 3.698329,0.61736 h 3.888849 z m 9.92512,-1.41111 c 3.149146,-3.09997 6.924439,-7.87994 8.202779,-10.38568 l 0.68575,-1.34418 -3.62315,0.002 -3.623138,0.002 -1.920924,4.09675 c -1.056506,2.25322 -2.923689,5.58599 -4.149288,7.40616 l -2.228367,3.30952 h 1.760284 c 1.738824,0 1.798503,-0.0376 4.896054,-3.0868 z M 15.979278,263.51194 c 0,-0.053 -0.389418,-1.63142 -0.865374,-3.50769 -0.976167,-3.84817 -1.956849,-10.35751 -1.956849,-12.98872 v -1.75176 H 8.5709433 3.9848323 v 1.28082 c 0,2.71334 1.173212,8.60273 2.538323,12.7421 l 1.425187,4.32153 H 11.96381 c 2.208507,0 4.015468,-0.0433 4.015468,-0.0963 z m 16.922147,-0.1683 c -0.0062,-0.14553 -0.243375,-1.85209 -0.52716,-3.79237 -0.283785,-1.94027 -0.621105,-5.94871 -0.7496,-8.90764 l -0.233626,-5.37986 h -7.458017 -7.458016 l 0.125605,2.38125 c 0.174497,3.30819 1.333714,10.1762 2.249639,13.32845 l 0.765557,2.63475 h 6.648402 c 3.656621,0 6.643368,-0.11906 6.637216,-0.26458 z M 51.609834,254.436 v -9.17223 h -8.466666 -8.466667 l 0.0031,0.79375 c 0.0073,1.86749 0.728263,10.88861 1.064334,13.31737 0.662298,4.78634 -0.420369,4.23333 8.287901,4.23333 h 7.577994 z m 18.855674,8.37847 c 0.555356,-2.56445 1.589147,-13.37563 1.602341,-16.75695 l 0.0031,-0.79375 h -8.466667 -8.466667 v 9.17223 9.17222 h 7.578003 c 7.572551,0 7.578125,-7.1e-4 7.749893,-0.79375 z m 17.431689,-1.841 c 0.915924,-3.15225 2.075141,-10.02026 2.249639,-13.32845 l 0.125606,-2.38125 h -7.458018 -7.458016 l -0.233627,5.37986 c -0.128496,2.95893 -0.465815,6.96737 -0.7496,8.90764 -0.283785,1.94028 -0.521007,3.64684 -0.527159,3.79237 -0.0061,0.14552 2.980595,0.26458 6.637214,0.26458 h 6.648405 z m 12.327083,-1.68678 c 1.36512,-4.13937 2.53833,-10.02876 2.53833,-12.7421 v -1.28082 h -4.586105 -4.58611 v 1.75176 c 0,2.63121 -0.98068,9.14055 -1.956851,12.98872 -0.475957,1.87627 -0.865375,3.45473 -0.865375,3.50769 0,0.053 1.806956,0.0963 4.015466,0.0963 h 4.01547 z M 13.157055,239.98423 c 0,-2.63121 0.980682,-9.14054 1.956849,-12.98871 0.475956,-1.87627 0.865374,-3.45473 0.865374,-3.50769 0,-0.053 -1.806961,-0.0963 -4.015468,-0.0963 H 7.9483423 l -1.425187,4.32153 c -1.365111,4.13937 -2.538323,10.02875 -2.538323,12.7421 v 1.28082 h 4.586111 4.5861117 z m 18.46761,-3.6281 c 0.128495,-2.95892 0.465815,-6.96736 0.7496,-8.90764 0.283785,-1.94027 0.521007,-3.64684 0.52716,-3.79236 0.0062,-0.14552 -2.980595,-0.26458 -6.637216,-0.26458 h -6.648402 l -0.765557,2.63475 c -0.915925,3.15225 -2.075142,10.02026 -2.249639,13.32845 l -0.125605,2.38125 h 7.458016 7.458017 z m 19.985169,-3.79236 v -9.17222 h -7.578002 c -8.70827,0 -7.625602,-0.55301 -8.2879,4.23333 -0.336071,2.42876 -1.057048,11.44988 -1.064334,13.31737 l -0.0031,0.79375 h 8.466667 8.466666 z m 20.458015,8.37848 c -0.0073,-1.86749 -0.728264,-10.88861 -1.064334,-13.31737 -0.662298,-4.78634 0.42037,-4.23333 -8.2879,-4.23333 h -7.578003 v 9.17222 9.17223 h 8.466667 8.466667 l -0.0032,-0.79375 z m 18.078987,-1.5875 c -0.174498,-3.30819 -1.333715,-10.1762 -2.249639,-13.32845 l -0.765556,-2.63475 h -6.648405 c -3.656619,0 -6.643367,0.11906 -6.637214,0.26458 0.0061,0.14552 0.243374,1.85209 0.527159,3.79236 0.283785,1.94028 0.621104,5.94872 0.7496,8.90764 l 0.233627,5.37987 h 7.458016 7.458018 z m 12.615774,1.10043 c 0,-2.71335 -1.17321,-8.60273 -2.53833,-12.7421 l -1.425175,-4.32153 h -4.01547 c -2.20851,0 -4.015466,0.0433 -4.015466,0.0963 0,0.053 0.389418,1.63142 0.865375,3.50769 0.976171,3.84817 1.956851,10.3575 1.956851,12.98871 v 1.75177 h 4.58611 4.586105 z M 19.134924,215.76267 c 1.056508,-2.25322 2.923688,-5.58599 4.149289,-7.40616 l 2.228365,-3.30941 h -1.760281 c -1.738824,0 -1.798506,0.0376 -4.896056,3.08681 -3.149144,3.09997 -6.92444,7.87994 -8.202776,10.38568 l -0.6857507,1.34418 3.6231437,-0.002 3.623142,-0.002 z m 15.203007,0.83791 c 0.439297,-1.79476 1.342343,-4.8507 2.006767,-6.79098 0.664426,-1.94027 1.293781,-3.80559 1.39857,-4.14513 0.173482,-0.56215 -0.157264,-0.61737 -3.698328,-0.61737 h -3.888851 l -1.374727,1.6757 c -3.005435,3.66341 -5.209124,7.19608 -6.932015,11.1125 l -0.892354,2.02847 h 6.291108 6.291108 z m 17.271903,-4.14514 v -7.40834 h -4.905967 -4.905968 l -1.063188,2.55764 c -1.11699,2.68708 -2.971779,8.6877 -3.380345,10.93612 l -0.240393,1.32291 h 7.247932 7.247929 z m 17.783247,6.08542 c -0.408566,-2.24842 -2.263356,-8.24904 -3.380345,-10.93612 L 64.949548,205.0471 H 60.04358 55.137612 v 7.40834 7.40833 h 7.247929 7.247933 z m 15.505018,-0.70556 c -1.72289,-3.91642 -3.92658,-7.44909 -6.932013,-11.1125 l -1.37473,-1.6757 h -3.888849 c -3.541064,0 -3.871811,0.0552 -3.698329,0.61737 0.10479,0.33954 0.734145,2.20486 1.39857,4.14513 0.664426,1.94028 1.56747,4.99622 2.00677,6.79098 l 0.79872,3.26319 h 6.291108 6.291108 z m 11.195886,0.68429 c -1.27834,-2.50574 -5.053633,-7.28571 -8.202779,-10.38568 -3.097551,-3.04918 -3.15723,-3.08681 -4.896054,-3.08681 h -1.760284 l 2.228367,3.30941 c 1.225599,1.82017 3.092782,5.15294 4.149288,7.40616 l 1.920924,4.09675 3.623138,0.002 3.62315,0.002 z m -66.157792,-18.11952 1.036141,-1.11926 -1.763889,0.99449 c -2.239615,1.26272 -2.221837,1.24403 -1.183132,1.24403 0.529609,0 1.283551,-0.44161 1.91088,-1.11926 z m 11.689903,-1.71936 c 1.008874,-1.54321 1.748466,-2.80583 1.643539,-2.80583 -0.559594,0 -6.520438,3.3477 -7.849031,4.40813 l -1.548952,1.23632 2.960063,-0.0164 2.960063,-0.0164 1.834318,-2.80583 z m 9.983738,-0.68916 c 0,-4.0511 -0.06099,-4.10827 -2.593276,-2.43095 -1.580596,1.04694 -3.29057,2.88936 -4.629983,4.98859 l -0.618998,0.97014 h 3.921129 3.921128 z m 10.751038,2.55764 c -1.339413,-2.09923 -3.049387,-3.94165 -4.629983,-4.98859 -2.532288,-1.67732 -2.593277,-1.62015 -2.593277,2.43095 v 3.52778 h 3.921129 3.921129 z m 8.965971,-0.26618 c -1.328593,-1.06043 -7.289437,-4.40813 -7.849031,-4.40813 -0.104927,0 0.634665,1.26262 1.643539,2.80583 l 1.834317,2.80583 2.960064,0.0164 2.960063,0.0164 -1.548952,-1.23632 z m 8.12304,1.11155 c -0.08085,-0.0686 -0.940742,-0.57228 -1.910881,-1.11926 l -1.763889,-0.99449 1.03614,1.11926 c 0.627331,0.67765 1.38127,1.11926 1.910881,1.11926 0.481104,0 0.808592,-0.0562 0.727749,-0.12477 z m 33.712277,86.42916 c -2.25119,-1.04831 -3.9334,-2.73053 -4.98171,-4.98172 l -0.82484,-1.77128 V 242.26516 203.4596 l 0.82314,-1.76388 c 0.85816,-1.83894 2.88381,-3.9167 4.88153,-5.00713 1.11294,-0.60748 4.37978,-0.64161 69.76944,-0.72904 77.8001,-0.10402 70.67048,-0.38199 73.93511,2.88264 3.20419,3.20419 2.9839,-0.002 2.9839,43.42297 0,42.70533 0.16363,39.96384 -2.5707,43.07019 -0.81634,0.92742 -2.24248,2.0226 -3.2367,2.48557 l -1.77733,0.82763 h -68.61528 -68.61528 z m 137.79892,-1.29098 c 2.36146,-0.44784 4.26024,-1.68141 5.52144,-3.58709 l 0.97315,-1.47044 0.0928,-38.73733 0.0928,-38.73732 -0.75001,-1.5956 c -0.41251,-0.87757 -1.22749,-1.99735 -1.81106,-2.4884 -2.4558,-2.06642 2.55905,-1.93838 -72.04758,-1.83946 l -68.50348,0.0908 -1.4705,0.97315 c -0.80878,0.53523 -1.90842,1.63485 -2.44365,2.44359 l -0.97315,1.47043 -0.1047,38.47864 c -0.0736,27.05624 0.01,38.87308 0.2805,39.8074 0.74209,2.55992 3.14229,4.59458 6.11295,5.18197 2.21637,0.43824 132.72141,0.44754 135.03055,0.01 z m -98.84979,-11.4805 c -2.28498,-0.70369 -4.33935,-2.99239 -4.85838,-5.41256 -0.22282,-1.03897 -0.39308,-5.26339 -0.39308,-9.75299 v -7.92014 h 1.56514 1.56515 l 0.11055,8.73125 c 0.10161,8.02502 0.16859,8.83112 0.82811,9.96597 0.91862,1.58071 2.69038,2.46835 4.92689,2.46835 2.2365,0 4.00827,-0.88764 4.92688,-2.46835 0.65952,-1.13485 0.7265,-1.94095 0.82811,-9.96597 l 0.11056,-8.73125 h 1.56514 1.56514 v 7.92014 c 0,4.35607 -0.16981,8.71191 -0.37734,9.67963 -0.5376,2.50671 -2.6159,4.79194 -5.00266,5.50073 -2.21509,0.65781 -5.19561,0.65182 -7.36021,-0.0148 z m 53.13327,0.24182 c -3.18255,-0.84562 -5.26668,-2.68451 -6.84708,-6.0414 -0.80159,-1.70262 -0.91347,-2.39397 -0.91347,-5.64444 0,-3.25047 0.11188,-3.94182 0.91347,-5.64445 1.23491,-2.62303 2.37862,-3.89445 4.61303,-5.12813 1.6959,-0.93635 2.19411,-1.03783 5.05627,-1.02991 2.74258,0.008 3.42098,0.1369 4.98113,0.94941 2.13862,1.11377 3.44217,2.56203 4.68817,5.20863 0.80159,1.70263 0.91347,2.39398 0.91347,5.64445 0,3.25047 -0.11188,3.94182 -0.91347,5.64444 -1.94006,4.12083 -4.59649,5.96349 -8.92487,6.19085 -1.37957,0.0725 -2.98457,0.005 -3.56665,-0.14945 z m 6.80329,-3.30348 c 0.9695,-0.64158 1.73508,-1.58483 2.42238,-2.98451 0.89053,-1.81358 1.00488,-2.42784 1.00488,-5.39785 0,-2.97001 -0.11435,-3.58427 -1.00488,-5.39785 -1.4463,-2.94539 -3.07623,-3.95076 -6.40507,-3.95076 -2.14662,0 -2.73263,0.14096 -3.95829,0.95215 -5.09272,3.37054 -4.67169,14.47345 0.65132,17.17594 2.154,1.09358 5.29569,0.92243 7.28966,-0.39712 z m -87.06024,-8.41472 v -11.67402 l 5.20347,0.12055 c 4.33928,0.10053 5.43706,0.23773 6.60993,0.82611 2.48511,1.24666 3.67444,3.87908 3.19551,7.07279 -0.25066,1.6715 -1.93586,4.03971 -2.87462,4.03971 -0.68539,0 -0.64317,0.0945 0.65979,1.476 0.63383,0.67205 2.15152,3.15488 3.37265,5.5174 l 2.22023,4.29549 h -1.70975 -1.70975 l -1.92051,-3.89238 c -1.05629,-2.1408 -2.37055,-4.32362 -2.9206,-4.8507 -0.89718,-0.85971 -1.30624,-0.97111 -3.97571,-1.08271 l -2.97564,-0.12439 v 4.97509 4.97509 h -1.5875 -1.5875 z m 10.46987,-1.58895 c 1.22556,-0.9103 1.77446,-2.82273 1.32221,-4.60669 -0.52973,-2.08958 -1.77196,-2.74647 -5.46735,-2.89113 l -3.14973,-0.1233 v 4.30354 4.30354 l 3.14973,-0.1233 c 2.51807,-0.0986 3.34935,-0.27157 4.14514,-0.86266 z m 35.39124,1.62131 v -11.64167 h 2.41069 2.41068 l 2.58364,6.96736 c 1.421,3.83205 2.77064,7.34188 2.9992,7.79961 0.3794,0.75979 0.60615,0.3298 2.60461,-4.93889 1.20397,-3.17412 2.53902,-6.68395 2.96679,-7.79961 l 0.77775,-2.02847 h 2.38304 2.38305 v 11.64167 11.64167 h -1.58209 -1.58209 l -0.0936,-10.06916 -0.0936,-10.06915 -2.8729,7.6879 -2.87289,7.68791 h -1.66254 -1.66255 l -2.87289,-7.68791 -2.8729,-7.6879 -0.0936,10.06915 -0.0936,10.06916 h -1.58209 -1.58209 z m 53.26945,-0.0324 V 251.9018 l 5.20347,0.12055 c 4.33927,0.10053 5.43706,0.23773 6.60993,0.8261 2.48511,1.24667 3.67444,3.87908 3.19551,7.0728 -0.25066,1.67149 -1.93586,4.0397 -2.87462,4.0397 -0.6854,0 -0.64317,0.0945 0.65979,1.476 0.63383,0.67205 2.15152,3.15488 3.37265,5.5174 l 2.22023,4.29549 h -1.70975 -1.70975 l -1.92051,-3.89238 c -1.05629,-2.1408 -2.37055,-4.32362 -2.9206,-4.8507 -0.89718,-0.85971 -1.30624,-0.97111 -3.97572,-1.08271 l -2.97563,-0.12439 v 4.97509 4.97509 h -1.5875 -1.5875 v -11.67403 z m 10.46987,-1.58895 c 1.22556,-0.91031 1.77446,-2.82273 1.32221,-4.60669 -0.52973,-2.08959 -1.77196,-2.74648 -5.46735,-2.89113 l -3.14973,-0.12331 v 4.30354 4.30354 l 3.14973,-0.1233 c 2.51807,-0.0986 3.34935,-0.27157 4.14514,-0.86266 z M 123.81269,244.32404 c -0.12991,-0.12991 -0.23619,-0.36848 -0.23619,-0.53018 0,-0.16168 27.3976,-0.29398 60.88356,-0.29398 48.55007,0 60.8538,0.0893 60.73659,0.44098 -0.11667,0.35003 -12.62426,0.45936 -60.64738,0.53017 -33.27522,0.0491 -60.60668,-0.0171 -60.73658,-0.147 z m 21.10687,-10.20996 c -3.10212,-0.99024 -5.17657,-2.87978 -6.62174,-6.03147 -0.64281,-1.40189 -0.77605,-2.32838 -0.77605,-5.39662 0,-3.90152 0.54042,-5.80292 2.27668,-8.01021 3.00918,-3.82556 9.63201,-5.09041 14.64259,-2.7965 l 1.94379,0.8899 v 1.6617 c 0,1.55413 -0.04,1.62656 -0.61736,1.11895 -2.17345,-1.91074 -6.57009,-2.86141 -9.52963,-2.06056 -1.8377,0.49729 -3.74747,2.11714 -4.77255,4.04805 -0.64689,1.21852 -0.76686,2.024 -0.76686,5.14867 0,4.21341 0.54736,5.72716 2.77959,7.68708 2.84309,2.49626 8.33554,2.42314 11.76029,-0.15658 l 1.14652,-0.86362 v 1.62497 1.62497 l -1.9736,0.90354 c -2.54405,1.16471 -6.87762,1.44218 -9.49167,0.60773 z m 22.93055,0.25775 c -3.18254,-0.84561 -5.26668,-2.68451 -6.84708,-6.04139 -0.80158,-1.70263 -0.91347,-2.39398 -0.91347,-5.64445 0,-3.25046 0.11189,-3.94181 0.91347,-5.64444 1.23491,-2.62303 2.37862,-3.89445 4.61304,-5.12813 1.6959,-0.93636 2.1941,-1.03784 5.05626,-1.02991 2.74258,0.008 3.42099,0.13689 4.98113,0.9494 2.13863,1.11378 3.44217,2.56204 4.68817,5.20864 0.80159,1.70263 0.91348,2.39398 0.91348,5.64444 0,3.25047 -0.11189,3.94182 -0.91348,5.64445 -1.94005,4.12082 -4.59649,5.96349 -8.92486,6.19084 -1.37958,0.0725 -2.98457,0.005 -3.56666,-0.14945 z m 6.8033,-3.30348 c 0.96949,-0.64157 1.73508,-1.58482 2.42237,-2.98451 0.89053,-1.81358 1.00489,-2.42783 1.00489,-5.39785 0,-2.97001 -0.11436,-3.58427 -1.00489,-5.39785 -1.44629,-2.94539 -3.07622,-3.95076 -6.40507,-3.95076 -2.14662,0 -2.73262,0.14096 -3.95829,0.95215 -5.09272,3.37055 -4.67169,14.47346 0.65133,17.17595 2.154,1.09358 5.29568,0.92243 7.28966,-0.39713 z m 12.07031,-8.38236 v -11.72596 l 5.55625,0.17075 c 6.94435,0.21341 8.67074,0.7139 11.22023,3.25281 2.22628,2.21704 2.80971,4.03074 2.78421,8.65518 -0.0227,4.11398 -0.88603,6.3944 -3.18797,8.42065 -2.34507,2.06422 -4.36423,2.5835 -10.81647,2.78179 l -5.55625,0.17075 z m 10.58334,8.7935 c 3.68221,-0.83846 5.60193,-3.35489 5.91683,-7.75598 0.32293,-4.5134 -1.09996,-7.75887 -4.0218,-9.17331 -1.33899,-0.64819 -2.45181,-0.84476 -5.49133,-0.97 l -3.81204,-0.15706 v 9.21754 9.21754 l 2.91042,-0.009 c 1.60073,-0.005 3.62479,-0.17128 4.49792,-0.3701 z m 14.11111,-8.7935 v -11.64166 h 7.40833 7.40834 v 1.23472 1.23472 h -5.82084 -5.82083 v 3.52778 3.52778 h 5.64444 5.64445 v 1.23472 1.23472 h -5.64445 -5.64444 v 4.40972 4.40973 h 5.99722 5.99722 v 1.23472 1.23472 h -7.58472 -7.58472 z"
       id="path85"
       inkscape:connector-curvature="0" />
  </g>
</svg>
