<?xml version="1.0" encoding="UTF-8" standalone="no"?>
<!-- Created with Inkscape (http://www.inkscape.org/) -->

<svg
   xmlns:dc="http://purl.org/dc/elements/1.1/"
   xmlns:cc="http://creativecommons.org/ns#"
   xmlns:rdf="http://www.w3.org/1999/02/22-rdf-syntax-ns#"
   xmlns:svg="http://www.w3.org/2000/svg"
   xmlns="http://www.w3.org/2000/svg"
   xmlns:sodipodi="http://sodipodi.sourceforge.net/DTD/sodipodi-0.dtd"
   xmlns:inkscape="http://www.inkscape.org/namespaces/inkscape"
   width="95mm"
   height="95mm"
   viewBox="0 0 95 95.000002"
   version="1.1"
   id="svg8"
   inkscape:version="0.92.3 (2405546, 2018-03-11)"
   sodipodi:docname="twitter.svg">
  <defs
     id="defs2" />
  <sodipodi:namedview
     id="base"
     pagecolor="#ffffff"
     bordercolor="#666666"
     borderopacity="1.0"
     inkscape:pageopacity="0.0"
     inkscape:pageshadow="2"
     inkscape:zoom="0.7"
     inkscape:cx="264.78337"
     inkscape:cy="139.9844"
     inkscape:document-units="mm"
     inkscape:current-layer="layer1"
     showgrid="false"
     inkscape:window-width="1366"
     inkscape:window-height="705"
     inkscape:window-x="-8"
     inkscape:window-y="-8"
     inkscape:window-maximized="1" />
  <metadata
     id="metadata5">
    <rdf:RDF>
      <cc:Work
         rdf:about="">
        <dc:format>image/svg+xml</dc:format>
        <dc:type
           rdf:resource="http://purl.org/dc/dcmitype/StillImage" />
        <dc:title></dc:title>
      </cc:Work>
    </rdf:RDF>
  </metadata>
  <g
     inkscape:label="Layer 1"
     inkscape:groupmode="layer"
     id="layer1"
     transform="translate(0,-202.00001)">
    <path
       style="fill:#000000;stroke-width:0.26458332"
       d=""
       id="path23"
       inkscape:connector-curvature="0" />
    <path
       style="fill:#000000;stroke-width:0.26458332"
       d=""
       id="path21"
       inkscape:connector-curvature="0" />
    <path
       style="fill:#000000;stroke-width:0.0475"
       d=""
       id="path119"
       inkscape:connector-curvature="0" />
    <path
       style="fill:#000000;stroke-width:0.0475"
       d=""
       id="path117"
       inkscape:connector-curvature="0" />
    <path
       style="fill:#000000;stroke-width:0.0475"
       d=""
       id="path115"
       inkscape:connector-curvature="0" />
    <g
       id="g132"
       transform="translate(0,-1e-5)">
      <path
         style="fill:#fefefe;stroke-width:0.18554688"
         d="m 0,249.50002 v -47.5 H 47.5 95 v 47.5 47.5 H 47.5 0 Z"
         id="path148"
         inkscape:connector-curvature="0" />
      <path
         style="fill:#d0ebf7;stroke-width:0.18554688"
         d="m 28.123147,277.95936 c -4.716995,-0.73513 -9.69329,-2.40362 -13.727398,-4.60261 -3.048314,-1.66164 -3.075776,-2.00548 -0.147043,-1.84108 4.562461,0.25612 9.679397,-0.80237 14.047192,-2.90579 1.997806,-0.9621 4.174805,-2.30048 4.174805,-2.5666 0,-0.0902 -0.440158,-0.21578 -0.978131,-0.279 -1.107349,-0.13015 -3.168496,-0.79321 -4.406287,-1.41749 -2.981948,-1.50394 -5.856093,-4.61584 -6.979121,-7.55645 -0.482522,-1.26346 -0.383121,-1.32892 1.845278,-1.21519 1.066917,0.0545 2.176801,0.0395 2.466408,-0.0332 0.494562,-0.12412 0.434536,-0.17541 -0.987827,-0.84398 -4.418326,-2.07681 -7.254014,-5.44192 -8.416749,-9.98817 -0.41761,-1.63285 -0.476554,-3.52484 -0.114146,-3.66391 0.133059,-0.0511 0.710798,0.11452 1.283865,0.36796 1.126094,0.49801 3.02037,1.03535 3.649918,1.03535 0.317803,0 0.187003,-0.2037 -0.701039,-1.09174 -1.965009,-1.96501 -3.161642,-4.03754 -3.959492,-6.85771 -0.600507,-2.12262 -0.552617,-5.28777 0.113641,-7.51075 0.534657,-1.7839 1.039755,-2.89394 1.484926,-3.2634 0.243936,-0.20245 0.562636,0.0529 2.193738,1.75798 4.879497,5.10066 10.504996,8.69178 16.968661,10.83217 3.436985,1.13813 7.925807,2.05142 10.082747,2.05142 h 0.47507 l -0.004,-2.64405 c -0.0047,-3.03853 0.231772,-4.1537 1.393389,-6.57223 1.829453,-3.80898 5.499485,-6.8193 9.588852,-7.86518 1.751424,-0.44794 5.741745,-0.5001 7.295646,-0.0954 2.472069,0.6439 4.532823,1.70019 6.313255,3.23603 0.877212,0.7567 0.990404,0.80206 1.714648,0.68703 1.260125,-0.20014 4.536825,-1.36027 6.350564,-2.24844 0.927634,-0.45426 1.785264,-0.82593 1.905836,-0.82593 0.584932,0 -0.08635,1.87173 -1.341386,3.74016 -0.366215,0.54521 -1.26663,1.59663 -2.000918,2.3365 -0.990259,0.99778 -1.241862,1.3451 -0.974174,1.34475 0.526653,-7.4e-4 3.503836,-0.82128 4.936755,-1.3607 1.97818,-0.7447 1.979296,-0.26335 0.0049,2.11787 -1.440283,1.73705 -3.41337,3.66665 -4.692438,4.58899 l -0.668313,0.48193 -0.118797,2.79176 c -0.271735,6.38579 -1.584266,11.55206 -4.386163,17.26441 -6.153525,12.54546 -17.226656,20.64207 -30.930445,22.61616 -2.649004,0.3816 -10.303689,0.38067 -12.75619,-10e-4 z"
         id="path146"
         inkscape:connector-curvature="0" />
      <path
         style="fill:#b8e1f4;stroke-width:0.18554688"
         d="m 30.058594,278.05667 c -2.674666,-0.2722 -6.037846,-1.00731 -8.865612,-1.93781 -2.284371,-0.75168 -6.74219,-2.77313 -8.353045,-3.78777 -0.955567,-0.60189 -0.591873,-0.81661 1.14791,-0.67772 4.441445,0.35456 10.260009,-0.85821 14.64175,-3.05178 1.931736,-0.96706 4.2122,-2.38489 4.2122,-2.61884 0,-0.0758 -0.31311,-0.18809 -0.695801,-0.24956 -5.381151,-0.86442 -9.198173,-3.58106 -11.525624,-8.20298 -0.94282,-1.87227 -0.976665,-1.83765 1.784413,-1.82511 3.238418,0.0147 3.491269,-0.12538 1.613651,-0.89396 -5.234173,-2.14256 -8.745619,-6.85429 -9.234461,-12.39099 -0.119985,-1.35897 -0.02993,-1.38835 1.965021,-0.64115 0.973205,0.36451 2.257717,0.71789 2.854471,0.7853 l 1.08501,0.12255 -1.310067,-1.29909 c -2.044824,-2.02769 -3.354158,-4.24395 -4.092822,-6.92777 -0.454309,-1.65066 -0.454309,-5.37865 0,-7.02931 0.381258,-1.38524 1.271981,-3.42668 1.577527,-3.61552 0.124874,-0.0772 1.009332,0.70433 2.181477,1.92756 2.381771,2.48557 4.139922,3.97332 6.898919,5.83787 3.680602,2.48738 8.115655,4.49577 12.528383,5.67341 2.039834,0.54438 6.462518,1.29607 7.636504,1.29792 l 0.556641,9.3e-4 v -2.82961 c 0,-2.44805 0.05862,-3.01727 0.434742,-4.22122 1.404206,-4.49483 4.764714,-8.06963 9.059252,-9.63694 5.189796,-1.89404 11.055391,-0.75934 15.137144,2.92827 l 0.71009,0.64153 1.059855,-0.23669 c 1.746068,-0.38994 3.729711,-1.09941 5.768761,-2.06325 1.059137,-0.50064 1.998468,-0.91026 2.087403,-0.91026 0.357892,0 0.120698,0.86925 -0.626876,2.29732 -0.592548,1.13193 -1.230283,1.9561 -2.565469,3.31547 -1.578704,1.6073 -1.723573,1.80903 -1.298828,1.80862 0.575341,-5.6e-4 3.618461,-0.7972 4.984538,-1.30487 1.980155,-0.73586 1.991874,-0.43583 0.0733,1.87649 -1.497642,1.80499 -3.002396,3.27059 -4.533384,4.41542 l -0.881347,0.65904 v 1.79621 c 0,6.7948 -2.067182,14.40453 -5.574634,20.52139 -6.417005,11.191 -16.73856,18.27621 -29.400952,20.18222 -2.452542,0.36917 -8.571967,0.51591 -11.040039,0.26473 z"
         id="path144"
         inkscape:connector-curvature="0" />
      <path
         style="fill:#a9dbf1;stroke-width:0.18554688"
         d="m 28.348377,277.77309 c -2.413162,-0.34926 -6.30983,-1.34935 -8.587635,-2.20404 -3.057783,-1.14736 -7.531386,-3.47742 -7.238601,-3.77021 0.06153,-0.0615 1.13091,-0.0896 2.376406,-0.0623 3.694077,0.0808 7.962366,-0.65721 11.234647,-1.94246 2.633778,-1.03447 7.130169,-3.60617 6.829956,-3.90638 -0.05387,-0.0539 -0.779755,-0.21626 -1.613079,-0.36088 -4.721632,-0.81937 -8.898714,-4.04452 -10.87401,-8.3959 -0.248941,-0.54838 -0.421268,-1.09111 -0.382949,-1.20605 0.04737,-0.14209 0.661798,-0.18875 1.919685,-0.14577 1.981539,0.0677 3.592672,-0.0949 3.592672,-0.3626 0,-0.0905 -0.10437,-0.1655 -0.231934,-0.16674 -0.127563,-0.001 -0.860524,-0.27674 -1.628801,-0.6122 -4.463128,-1.94881 -7.523177,-5.61862 -8.615933,-10.3328 -0.275231,-1.18736 -0.37739,-2.81456 -0.188558,-3.0034 0.05307,-0.0531 0.830147,0.17908 1.726836,0.51589 1.538132,0.57775 3.89407,1.09954 4.088167,0.90544 0.04868,-0.0487 -0.428731,-0.55659 -1.060918,-1.12869 -2.022799,-1.83053 -3.626619,-4.46313 -4.32335,-7.0966 -0.48508,-1.83347 -0.522495,-4.95898 -0.08139,-6.79909 0.348785,-1.45499 1.366536,-3.80371 1.648231,-3.80371 0.101014,0 1.153229,0.9816 2.338255,2.18133 1.185027,1.19973 2.822562,2.71672 3.638968,3.3711 3.452415,2.76721 8.0398,5.35249 12.060547,6.79686 4.550591,1.63471 12.010939,2.88156 11.826043,1.9765 -0.02693,-0.13181 -0.100583,-0.96695 -0.163682,-1.85588 -0.398005,-5.60714 2.827729,-11.20178 7.949344,-13.78717 2.044914,-1.03227 4.007677,-1.46625 6.617548,-1.4632 1.408611,0.002 2.808451,0.11202 3.505697,0.27642 2.277218,0.53691 4.680201,1.78351 6.303385,3.27003 0.433621,0.39712 0.974652,0.71839 1.209784,0.71839 1.114371,0 4.894781,-1.27536 7.232625,-2.44 0.788628,-0.39286 1.477471,-0.7143 1.530762,-0.7143 0.440592,0 -0.601855,2.24794 -1.860213,4.01136 -0.457329,0.64089 -1.413125,1.68599 -2.123993,2.32245 -0.710867,0.63645 -1.259367,1.19031 -1.218889,1.23079 0.151312,0.15131 3.233619,-0.57577 5.082849,-1.19898 1.054157,-0.35526 1.964144,-0.59843 2.022192,-0.54038 0.316506,0.3165 -3.79859,4.88116 -5.775146,6.40607 l -0.98207,0.75766 -0.124003,2.729 c -0.496386,10.9244 -4.574209,20.54456 -11.887595,28.04452 -6.503774,6.6697 -14.046839,10.44937 -23.578232,11.81456 -2.427539,0.3477 -9.711685,0.33062 -12.193615,-0.0286 z"
         id="path142"
         inkscape:connector-curvature="0" />
      <path
         style="fill:#8fd0ed;stroke-width:0.18554688"
         d="m 30.244141,277.95645 c -4.255191,-0.52886 -8.280032,-1.5412 -11.738358,-2.95248 -2.130821,-0.86955 -5.888595,-2.82103 -5.888595,-3.05806 0,-0.0724 1.565551,-0.17888 3.479003,-0.23666 4.954352,-0.14961 8.16767,-0.88926 12.245662,-2.81874 2.063107,-0.97615 4.985759,-2.84535 4.756863,-3.04229 -0.09028,-0.0777 -0.832114,-0.24799 -1.648521,-0.37847 -4.604108,-0.73585 -8.836332,-3.88682 -10.754094,-8.00663 -0.781758,-1.6794 -0.807821,-1.65451 1.731878,-1.65451 2.254823,0 3.363037,-0.12289 3.363037,-0.37293 0,-0.0775 -0.43475,-0.28319 -0.966111,-0.45699 -5.207043,-1.70314 -8.999721,-6.2676 -9.809493,-11.80567 -0.281796,-1.92721 -0.191912,-2.01909 1.36563,-1.39598 1.364697,0.54597 3.302594,1.03649 4.110896,1.04055 0.524129,0.003 0.490298,-0.0503 -0.857908,-1.34247 -2.271681,-2.17726 -3.715123,-4.72289 -4.309403,-7.59999 -0.559736,-2.70985 -0.278639,-5.8447 0.755782,-8.42864 0.743274,-1.85666 0.733881,-1.85764 2.774029,0.288 6.928569,7.28683 15.862123,11.69814 25.941398,12.80963 1.012954,0.1117 1.910599,0.13423 1.994763,0.0501 0.08417,-0.0842 0.0693,-0.81341 -0.03303,-1.62054 -0.584312,-4.60858 1.51337,-9.63404 5.275209,-12.63792 2.631997,-2.10169 5.17175,-3.03423 8.641053,-3.1728 4.297125,-0.17164 6.987317,0.82013 10.968437,4.04362 l 0.48504,0.39273 1.741522,-0.47562 c 1.952302,-0.53318 3.472823,-1.10357 5.592756,-2.098 0.791517,-0.37129 1.483896,-0.63029 1.538621,-0.57557 0.163458,0.16346 -0.757511,2.08087 -1.556051,3.23962 -0.861374,1.24993 -1.781601,2.24673 -3.091614,3.34886 l -0.927734,0.78052 0.590488,0.006 c 0.676125,0.007 4.449045,-0.93746 5.480212,-1.37244 0.784902,-0.3311 1.258401,-0.37343 1.258401,-0.1125 0,0.27381 -2.60141,3.32331 -3.729021,4.37135 -0.551334,0.51243 -1.419905,1.26389 -1.930158,1.66992 -0.510254,0.40603 -0.989078,0.82173 -1.064054,0.92378 -0.07498,0.10205 -0.137598,1.16235 -0.13916,2.35622 -0.0113,8.63076 -3.542395,18.35099 -9.25467,25.47581 -5.220712,6.51171 -12.570584,11.34005 -20.458898,13.44004 -4.055481,1.07963 -6.149934,1.34937 -10.924039,1.40688 -2.398193,0.0289 -4.652588,0.0162 -5.009765,-0.0282 z"
         id="path140"
         inkscape:connector-curvature="0" />
      <path
         style="fill:#71c4e9;stroke-width:0.18554688"
         d="m 31.450195,277.9613 c -6.09181,-0.48333 -12.163944,-2.26912 -17.109595,-5.03184 -0.838013,-0.46813 -1.485061,-0.9136 -1.437886,-0.98993 0.04717,-0.0763 0.732821,-0.0945 1.523658,-0.0405 3.064444,0.20952 7.59034,-0.516 11.27187,-1.80691 2.69567,-0.94523 7.506128,-3.63869 7.512264,-4.20625 0.0013,-0.12331 -0.386221,-0.27304 -0.878963,-0.33957 -4.398741,-0.59397 -8.087491,-2.8026 -10.465564,-6.26623 -0.725826,-1.05716 -1.63595,-2.82963 -1.639616,-3.19317 -0.0011,-0.11409 0.909174,-0.18554 2.36391,-0.18554 3.433797,0 4.276404,-0.32793 2.412168,-0.93878 -4.368992,-1.43157 -7.781029,-4.78375 -9.271989,-9.10932 -0.521505,-1.51298 -0.938839,-4.51733 -0.627503,-4.51733 0.06967,0 0.438975,0.15932 0.820672,0.35405 1.239482,0.63233 4.670488,1.45343 5.062053,1.21143 0.0833,-0.0515 -0.580333,-0.82139 -1.474743,-1.71089 -1.832327,-1.82229 -2.773541,-3.25259 -3.561953,-5.41289 -1.15817,-3.17347 -1.14976,-6.49135 0.02468,-9.73708 0.851993,-2.3546 0.834776,-2.35315 2.831434,-0.23791 6.60604,6.9984 15.394498,11.43731 25.229328,12.74295 0.798279,0.10597 1.763239,0.19268 2.14436,0.19268 h 0.692943 l -0.0099,-2.82959 c -0.01126,-3.23591 0.206094,-4.29605 1.379047,-6.72607 4.06167,-8.41463 15.482449,-10.67817 22.598905,-4.47899 0.985222,0.85823 1.075073,0.89643 1.856828,0.78927 1.158206,-0.15875 4.399578,-1.27065 6.361599,-2.18224 0.913065,-0.42423 1.714722,-0.71672 1.781462,-0.64998 0.216281,0.21628 -1.249247,2.84265 -2.290864,4.10545 -0.557618,0.67603 -1.509518,1.61406 -2.115335,2.08452 -1.625797,1.26255 -1.514802,1.37 0.900968,0.87226 1.177159,-0.24254 4.04589,-1.10042 5.001943,-1.49581 1.244162,-0.51453 -2.664802,3.99608 -5.258727,6.06812 l -1.130311,0.9029 -0.118729,2.92975 c -0.245002,6.04555 -1.563678,11.40058 -4.116968,16.71865 -6.050229,12.60161 -17.207245,20.80365 -30.975741,22.77171 -1.881043,0.26887 -7.57117,0.47909 -9.285755,0.34305 z"
         id="path138"
         inkscape:connector-curvature="0" />
      <path
         style="fill:#50b7e4;stroke-width:0.18554688"
         d="m 30.336914,277.76385 c -4.019201,-0.49991 -7.459719,-1.2901 -10.435312,-2.3967 -1.911306,-0.7108 -6.093232,-2.71798 -6.509889,-3.12452 -0.201531,-0.19664 0.334939,-0.25959 2.96875,-0.34835 4.853287,-0.16355 8.037589,-0.92846 12.120982,-2.91161 2.485555,-1.20714 4.824219,-2.73721 4.824219,-3.15624 0,-0.19533 -0.305774,-0.31324 -1.055027,-0.40683 -3.795385,-0.47409 -7.266544,-2.35142 -9.531873,-5.15517 -1.009017,-1.24884 -2.308608,-3.50363 -2.308608,-4.00543 0,-0.21381 0.43793,-0.26907 2.272949,-0.28679 1.250123,-0.0121 2.523438,-0.0755 2.82959,-0.14099 0.92214,-0.19718 0.657356,-0.60366 -0.6891,-1.05786 -4.230374,-1.42701 -7.453881,-4.57713 -8.926842,-8.72361 -0.474286,-1.33515 -1.002539,-4.26947 -0.804301,-4.4677 0.05956,-0.0596 0.633314,0.11085 1.275009,0.3787 1.834794,0.76585 4.486377,1.28179 4.828627,0.93954 0.05808,-0.0581 -0.709757,-0.91391 -1.706296,-1.90186 -1.622528,-1.60853 -1.910439,-1.99987 -2.754859,-3.7445 -0.573539,-1.18497 -1.056021,-2.50855 -1.23153,-3.37841 -0.581178,-2.88045 -0.244776,-6.14792 0.881348,-8.56053 l 0.592788,-1.26998 2.133789,2.1688 c 1.173584,1.19284 2.801758,2.71057 3.618164,3.37274 5.125543,4.15721 11.595921,7.21843 17.945912,8.49046 2.853618,0.57164 6.073302,0.93016 6.30174,0.70173 0.101967,-0.10197 0.092,-0.7909 -0.02507,-1.73301 -0.358488,-2.88487 0.345054,-6.16077 1.887945,-8.79083 0.916082,-1.56158 3.342814,-4.02148 4.824074,-4.89001 2.451877,-1.43765 4.76365,-2.06047 7.65915,-2.06347 3.752153,-0.004 6.638951,1.08706 9.707124,3.6684 l 0.986419,0.82991 1.611238,-0.41866 c 1.906538,-0.4954 4.322969,-1.39649 5.957275,-2.22148 l 1.175195,-0.59324 -0.127896,0.52494 c -0.369728,1.51754 -3.095798,4.94159 -5.022245,6.30814 -0.384494,0.27274 -0.498246,0.45622 -0.367819,0.59328 0.301307,0.31664 4.80785,-0.70737 6.815572,-1.54867 0.19204,-0.0805 0.324707,-0.0547 0.324707,0.063 0,0.40547 -2.87266,3.6055 -4.318553,4.81068 -2.588922,2.15794 -2.361134,1.74413 -2.361134,4.28933 0,11.19913 -5.531715,23.11929 -14.194336,30.58704 -6.257116,5.39405 -13.649906,8.55038 -22.265625,9.50626 -1.563483,0.17346 -7.671974,0.217 -8.90625,0.0635 z"
         id="path136"
         inkscape:connector-curvature="0" />
      <path
         style="fill:#2ca9e0;stroke-width:0.18554688"
         d="m 28.759766,277.42952 c -4.278555,-0.632 -8.700124,-1.95844 -12.249103,-3.67463 -3.318343,-1.60467 -3.322633,-1.54193 0.114536,-1.67514 5.676379,-0.22 10.500808,-1.73516 15.183195,-4.76843 2.186068,-1.41615 2.364637,-2.03982 0.584042,-2.03982 -1.008234,0 -3.460205,-0.70282 -4.878675,-1.39841 -1.673208,-0.82051 -3.59416,-2.34567 -4.716899,-3.74505 -0.850817,-1.06046 -2.201159,-3.33521 -2.201159,-3.70802 0,-0.11992 0.963963,-0.22413 2.55127,-0.27582 3.619876,-0.11787 4.375119,-0.62469 2.053772,-1.37822 -5.470282,-1.7757 -9.278066,-6.37882 -9.912038,-11.9824 -0.121111,-1.07048 -0.10799,-1.12819 0.223442,-0.98271 2.223683,0.97601 5.447681,1.65729 5.865506,1.23946 0.139398,-0.13939 -0.320224,-0.70447 -1.56573,-1.92497 -1.973409,-1.93378 -2.981303,-3.47715 -3.794001,-5.80968 -0.475921,-1.36594 -0.517488,-1.70643 -0.520973,-4.26757 -0.0035,-2.56466 0.03775,-2.90992 0.52516,-4.39684 0.859453,-2.6219 0.664987,-2.62083 3.250828,-0.018 6.947503,6.99312 16.067794,11.34461 25.722178,12.27258 2.218517,0.21324 2.361112,0.13273 2.180979,-1.2314 -0.858757,-6.50334 2.285262,-12.27632 8.146508,-14.95845 2.017463,-0.92319 3.474757,-1.22356 5.936426,-1.22356 3.632761,0 6.371958,0.96201 9.251321,3.24909 0.91651,0.72798 1.649291,1.17943 1.829943,1.12738 0.165719,-0.0477 0.67704,-0.17981 1.136269,-0.29349 1.607834,-0.39801 3.81722,-1.17445 5.363824,-1.88499 0.858063,-0.39422 1.599711,-0.67716 1.648107,-0.62877 0.168109,0.16811 -1.517209,2.89026 -2.40856,3.89033 -0.493117,0.55327 -1.438367,1.43705 -2.100559,1.96397 -1.243923,0.98982 -1.383232,1.1887 -0.949297,1.35521 0.371413,0.14253 3.664285,-0.52989 5.359338,-1.09439 0.80316,-0.26748 1.508626,-0.43799 1.5677,-0.37892 0.254606,0.25461 -3.115959,3.8029 -5.084827,5.35295 -1.211151,0.95351 -1.439023,1.32098 -1.260422,2.03259 0.169208,0.67418 -0.231829,5.58005 -0.641953,7.85299 -1.223629,6.78144 -4.246726,13.43873 -8.552126,18.833 -1.442313,1.80709 -4.897645,5.23504 -6.671694,6.61883 -5.379529,4.19613 -12.187634,6.97635 -19.482422,7.95603 -2.414535,0.32427 -9.295774,0.32144 -11.503906,-0.005 z"
         id="path134"
         inkscape:connector-curvature="0" />
    </g>
  </g>
</svg>
